<svg xmlns="http://www.w3.org/2000/svg" width="360" height="220" viewBox="0 0 360 220" role="img" aria-labelledby="summary-title summary-desc">
  <title id="summary-title">GitHub activity counts for AliZahiri</title>
  <desc id="summary-desc">2 total stars, 736 commits in 2026, 385 total pull requests, 354 total issues, and contributions to 5 public repositories.</desc>
  <rect x="1" y="1" width="358" height="218" rx="12" fill="#0D1117" stroke="#0B1F3A" stroke-width="2" />
  <path d="M13 1 H240" stroke="#1F6FEB" stroke-width="2" />
  <path d="M240 1 H300" stroke="#F2B84B" stroke-width="2" />
  <text x="20" y="32" fill="#F5F7FA" font-family="Inter, Segoe UI, Arial, sans-serif" font-size="18" font-weight="600">Activity Counts</text>
  <text x="20" y="51" fill="#AAB4C3" font-family="Inter, Segoe UI, Arial, sans-serif" font-size="10">GitHub account statistics</text>
  <rect x="20" y="67" width="3" height="12" rx="1.5" fill="#F2B84B" />
  <text x="32" y="76" fill="#F5F7FA" font-family="Inter, Segoe UI, Arial, sans-serif" font-size="12">Total Stars</text>
  <text x="340" y="76" fill="#4EA1FF" font-family="Inter, Segoe UI, Arial, sans-serif" font-size="14" font-weight="700" text-anchor="end">2</text>
  <line x1="20" y1="86" x2="340" y2="86" stroke="#0B1F3A" stroke-width="1" />
  <rect x="20" y="95" width="3" height="12" rx="1.5" fill="#1F6FEB" />
  <text x="32" y="104" fill="#F5F7FA" font-family="Inter, Segoe UI, Arial, sans-serif" font-size="12">2026 Commits</text>
  <text x="340" y="104" fill="#4EA1FF" font-family="Inter, Segoe UI, Arial, sans-serif" font-size="14" font-weight="700" text-anchor="end">736</text>
  <line x1="20" y1="114" x2="340" y2="114" stroke="#0B1F3A" stroke-width="1" />
  <rect x="20" y="123" width="3" height="12" rx="1.5" fill="#1F6FEB" />
  <text x="32" y="132" fill="#F5F7FA" font-family="Inter, Segoe UI, Arial, sans-serif" font-size="12">Total PRs</text>
  <text x="340" y="132" fill="#4EA1FF" font-family="Inter, Segoe UI, Arial, sans-serif" font-size="14" font-weight="700" text-anchor="end">385</text>
  <line x1="20" y1="142" x2="340" y2="142" stroke="#0B1F3A" stroke-width="1" />
  <rect x="20" y="151" width="3" height="12" rx="1.5" fill="#1F6FEB" />
  <text x="32" y="160" fill="#F5F7FA" font-family="Inter, Segoe UI, Arial, sans-serif" font-size="12">Total Issues</text>
  <text x="340" y="160" fill="#4EA1FF" font-family="Inter, Segoe UI, Arial, sans-serif" font-size="14" font-weight="700" text-anchor="end">354</text>
  <line x1="20" y1="170" x2="340" y2="170" stroke="#0B1F3A" stroke-width="1" />
  <rect x="20" y="179" width="3" height="12" rx="1.5" fill="#F2B84B" />
  <text x="32" y="188" fill="#F5F7FA" font-family="Inter, Segoe UI, Arial, sans-serif" font-size="12">Contributed to</text>
  <text x="340" y="188" fill="#4EA1FF" font-family="Inter, Segoe UI, Arial, sans-serif" font-size="14" font-weight="700" text-anchor="end">5</text>
</svg>
